HIERARCHY
ROOT joint_Root
{
	OFFSET 0.0 0.0 0.0
	CHANNELS 6 Xposition Yposition Zposition Zrotation Xrotation Yrotation 
	JOINT Hips
	{
		OFFSET 4.5925 91.4895 -427.239
		CHANNELS 6 Xposition Yposition Zposition Zrotation Xrotation Yrotation 
		JOINT Spine
		{
			OFFSET 15.7357 0.0 0.0
			CHANNELS 6 Xposition Yposition Zposition Zrotation Xrotation Yrotation 
			JOINT Chest
			{
				OFFSET 8.98455 -0.406207 0.0
				CHANNELS 6 Xposition Yposition Zposition Zrotation Xrotation Yrotation 
				JOINT Neck
				{
					OFFSET 16.3773 0.0 0.0
					CHANNELS 6 Xposition Yposition Zposition Zrotation Xrotation Yrotation 
					JOINT Head
					{
						OFFSET 6.45672 0.0 0.0
						CHANNELS 6 Xposition Yposition Zposition Zrotation Xrotation Yrotation 
						End Site
						{
							OFFSET 0.0 0.0 0.0
						}
					}
				}
				JOINT Shoulder_L
				{
					OFFSET 12.9942 -0.242716 4.98039
					CHANNELS 6 Xposition Yposition Zposition Zrotation Xrotation Yrotation 
					JOINT UpperArm_L
					{
						OFFSET 5.34809 0.0 0.0
						CHANNELS 6 Xposition Yposition Zposition Zrotation Xrotation Yrotation 
						JOINT LowerArm_L
						{
							OFFSET 24.3286 1.87007e-05 0.0
							CHANNELS 6 Xposition Yposition Zposition Zrotation Xrotation Yrotation 
							JOINT Hand_L
							{
								OFFSET 22.2916 0.0 0.0
								CHANNELS 6 Xposition Yposition Zposition Zrotation Xrotation Yrotation 
								End Site
								{
									OFFSET 0.0 0.0 0.0
								}
							}
						}
					}
				}
				JOINT Shoulder_R
				{
					OFFSET 12.9945 -0.242716 -4.98039
					CHANNELS 6 Xposition Yposition Zposition Zrotation Xrotation Yrotation 
					JOINT UpperArm_R
					{
						OFFSET -5.34813 0.0 0.0
						CHANNELS 6 Xposition Yposition Zposition Zrotation Xrotation Yrotation 
						JOINT LowerArm_R
						{
							OFFSET -24.3289 0.000322201 0.0
							CHANNELS 6 Xposition Yposition Zposition Zrotation Xrotation Yrotation 
							JOINT Hand_R
							{
								OFFSET -22.2915 -0.000108084 0.0
								CHANNELS 6 Xposition Yposition Zposition Zrotation Xrotation Yrotation 
								End Site
								{
									OFFSET 0.0 0.0 0.0
								}
							}
						}
					}
				}
			}
		}
		JOINT UpperLeg_L
		{
			OFFSET -2.19248 -6.46944 0.0
			CHANNELS 6 Xposition Yposition Zposition Zrotation Xrotation Yrotation 
			JOINT LowerLeg_L
			{
				OFFSET 39.0811 0.0 -1.23785e-05
				CHANNELS 6 Xposition Yposition Zposition Zrotation Xrotation Yrotation 
				JOINT Foot_L
				{
					OFFSET 40.9854 0.0 -1.26872e-05
					CHANNELS 6 Xposition Yposition Zposition Zrotation Xrotation Yrotation 
					JOINT Toes_L
					{
						OFFSET 11.7543 0.0 0.0
						CHANNELS 6 Xposition Yposition Zposition Zrotation Xrotation Yrotation 
						End Site
						{
							OFFSET 0.0 0.0 0.0
						}
					}
				}
			}
		}
		JOINT UpperLeg_R
		{
			OFFSET -2.19251 6.46944 0.0
			CHANNELS 6 Xposition Yposition Zposition Zrotation Xrotation Yrotation 
			JOINT LowerLeg_R
			{
				OFFSET -39.0811 -0.00228153 -0.0401928
				CHANNELS 6 Xposition Yposition Zposition Zrotation Xrotation Yrotation 
				JOINT Foot_R
				{
					OFFSET -40.9854 0.0 0.0
					CHANNELS 6 Xposition Yposition Zposition Zrotation Xrotation Yrotation 
					JOINT Toes_R
					{
						OFFSET -11.7543 0.0 0.0
						CHANNELS 6 Xposition Yposition Zposition Zrotation Xrotation Yrotation 
						End Site
						{
							OFFSET 0.0 0.0 0.0
						}
					}
				}
			}
		}
	}
}
MOTION
Frames:	8
Frame Time:	0.0333333
0.000000 0.000000 0.000000 0.000000 0.000000 -0.000000 -0.404333 90.450000 -5.547130 89.133000 -3.753390 12.908700 15.735700 0.000005 -0.000001 89.619700 76.650900 -89.780300 8.984550 -0.406207 -0.000000 18.931300 -0.189203 -0.290441 16.377300 -0.000001 -0.000001 3.163830 -4.298580 2.174240 6.456720 -0.000001 -0.000000 -5.188560 -3.744810 0.410200 12.994200 -0.242716 4.980390 -91.187300 6.711220 -79.943200 5.348090 -0.000007 -0.000001 -56.128700 35.202900 -29.625500 24.328600 0.000019 0.000005 9.402310 22.020500 -23.828100 22.291600 -0.000001 0.000005 10.100000 5.205950 2.569800 12.994500 -0.242716 -4.980390 89.438100 10.777400 -86.997700 -5.348130 -0.000001 -0.000004 -55.041600 36.090900 -25.214100 -24.328900 0.000322 -0.000009 1.231370 3.224720 -20.928900 -22.291500 -0.000108 -0.000004 16.229200 5.416710 -3.488420 -2.192480 -6.469440 -0.000000 -174.386000 -10.668700 -2.382580 39.081100 -0.000007 -0.000012 -0.168568 0.249211 34.075000 40.985400 -0.000006 -0.000013 0.468171 5.319370 -68.639900 11.754300 -0.000000 0.000003 -0.000056 -0.000625 -16.601800 -2.192510 6.469440 -0.000001 174.886000 18.477500 178.703000 -39.081100 -0.002282 -0.040193 -0.168282 0.262350 33.184800 -40.985400 0.000008 0.000006 3.612350 12.779600 -68.770600 -11.754300 -0.000006 -0.000006 -0.003984 -0.051278 -18.658900
0.000000 0.000000 0.000000 0.000000 0.000000 -0.000000 -0.403273 90.443500 -5.591690 89.134600 -3.767870 12.952100 15.735700 0.000005 -0.000001 89.636800 76.615400 -89.785700 8.984550 -0.406207 -0.000000 19.002500 -0.180786 -0.268341 16.377300 -0.000001 -0.000001 3.168280 -4.303100 2.181560 6.456720 -0.000001 -0.000000 -5.165850 -3.774120 0.392146 12.994200 -0.242716 4.980390 -91.212700 6.762270 -79.808500 5.348090 -0.000007 -0.000001 -55.994200 34.605500 -29.756500 24.328600 0.000019 0.000005 10.437400 23.154000 -25.102000 22.291600 -0.000001 0.000005 10.373100 5.209350 2.483940 12.994500 -0.242716 -4.980390 89.435800 10.758900 -86.980100 -5.348130 -0.000001 -0.000004 -54.928300 36.116000 -25.387100 -24.328900 0.000322 -0.000009 1.231370 3.224280 -20.931500 -22.291500 -0.000108 -0.000004 16.275000 5.416140 -3.469460 -2.192480 -6.469440 -0.000000 -174.389000 -10.649600 -2.384290 39.081100 -0.000007 -0.000012 -0.171083 0.252601 34.109600 40.985400 -0.000006 -0.000013 0.457979 5.269660 -68.628900 11.754300 -0.000000 0.000003 -0.000056 -0.000623 -16.601700 -2.192510 6.469440 -0.000001 174.891000 18.440400 178.690000 -39.081100 -0.002282 -0.040193 -0.168572 0.262405 33.223600 -40.985400 0.000008 0.000006 3.613650 12.756800 -68.755900 -11.754300 -0.000006 -0.000006 -0.004084 -0.052306 -18.700800
0.000000 0.000000 0.000000 0.000000 0.000000 -0.000000 -0.405670 90.436100 -5.646400 89.138400 -3.760110 12.993600 15.735700 0.000005 -0.000001 89.677300 76.586400 -89.817700 8.984550 -0.406207 -0.000000 19.060600 -0.161777 -0.254459 16.377300 -0.000001 -0.000001 3.230740 -4.344730 2.220010 6.456720 -0.000001 -0.000000 -5.206230 -3.829540 0.373865 12.994200 -0.242716 4.980390 -91.232700 6.781220 -79.672500 5.348090 -0.000007 -0.000001 -55.762000 33.953400 -29.882900 24.328600 0.000019 0.000005 11.346000 23.380300 -26.822900 22.291600 -0.000001 0.000005 10.958300 5.211120 2.439220 12.994500 -0.242716 -4.980390 89.425000 10.751700 -86.920800 -5.348130 -0.000001 -0.000004 -54.891900 36.075500 -25.478300 -24.328900 0.000322 -0.000009 1.224440 3.192400 -21.013600 -22.291500 -0.000108 -0.000004 16.298300 5.416800 -3.491720 -2.192480 -6.469440 -0.000000 -174.393000 -10.625100 -2.410180 39.081100 -0.000007 -0.000012 -0.169932 0.250520 34.150000 40.985400 -0.000006 -0.000013 0.453959 5.259690 -68.603400 11.754300 -0.000000 0.000003 -0.000053 -0.000592 -16.600500 -2.192510 6.469440 -0.000001 174.904000 18.393500 178.667000 -39.081100 -0.002282 -0.040193 -0.168834 0.262344 33.269800 -40.985400 0.000008 0.000006 3.610960 12.701900 -68.741200 -11.754300 -0.000006 -0.000006 -0.004040 -0.051855 -18.682400
0.000000 0.000000 0.000000 0.000000 0.000000 -0.000000 -0.410999 90.435300 -5.694790 89.167100 -3.738350 13.030000 15.735700 0.000005 -0.000001 89.712200 76.558400 -89.853500 8.984550 -0.406207 -0.000000 19.116700 -0.146194 -0.258694 16.377300 -0.000001 -0.000001 3.299690 -4.399110 2.251600 6.456720 -0.000001 -0.000000 -5.201600 -3.906750 0.372553 12.994200 -0.242716 4.980390 -91.239800 6.766430 -79.591800 5.348090 -0.000007 -0.000001 -55.517900 33.078600 -29.972300 24.328600 0.000019 0.000005 12.457700 23.446100 -29.040100 22.291600 -0.000001 0.000005 11.659800 5.224250 2.104670 12.994500 -0.242716 -4.980390 89.413300 10.770400 -86.863400 -5.348130 -0.000001 -0.000004 -54.814500 36.043000 -25.561500 -24.328900 0.000322 -0.000009 1.211270 3.137560 -21.138600 -22.291500 -0.000108 -0.000004 16.348000 5.416950 -3.496520 -2.192480 -6.469440 -0.000000 -174.415000 -10.630200 -2.412820 39.081100 -0.000007 -0.000012 -0.169974 0.250646 34.143200 40.985400 -0.000006 -0.000013 0.460370 5.289000 -68.559900 11.754300 -0.000000 0.000003 -0.000053 -0.000599 -16.600800 -2.192510 6.469440 -0.000001 174.900000 18.341800 178.648000 -39.081100 -0.002282 -0.040193 -0.166101 0.257917 33.296400 -40.985400 0.000008 0.000006 3.602730 12.626600 -68.718700 -11.754300 -0.000006 -0.000006 -0.004068 -0.052144 -18.694200
0.000000 0.000000 0.000000 0.000000 0.000000 -0.000000 -0.419106 90.427500 -5.759190 89.184500 -3.673590 13.067700 15.735700 0.000005 -0.000001 89.711600 76.534000 -89.851800 8.984550 -0.406207 -0.000000 19.165400 -0.146655 -0.256388 16.377300 -0.000001 -0.000001 3.355530 -4.439240 2.314970 6.456720 -0.000001 -0.000000 -5.204460 -3.961810 0.346547 12.994200 -0.242716 4.980390 -91.248900 6.752920 -79.496700 5.348090 -0.000007 -0.000001 -55.042200 32.198900 -30.227800 24.328600 0.000019 0.000005 13.772700 23.401900 -31.680200 22.291600 -0.000001 0.000005 12.497900 5.233700 1.859740 12.994500 -0.242716 -4.980390 89.403100 10.760300 -86.806100 -5.348130 -0.000001 -0.000004 -54.787600 35.988000 -25.617000 -24.328900 0.000322 -0.000009 1.153550 2.966430 -21.278600 -22.291500 -0.000108 -0.000004 16.221400 5.415840 -3.459320 -2.192480 -6.469440 -0.000000 -174.428000 -10.591100 -2.444100 39.081100 -0.000007 -0.000012 -0.170593 0.251247 34.176200 40.985400 -0.000006 -0.000013 0.467100 5.337490 -68.529300 11.754300 -0.000000 0.000003 -0.000061 -0.000668 -16.603400 -2.192510 6.469440 -0.000001 174.890000 18.352100 178.617000 -39.081100 -0.002282 -0.040193 -0.165780 0.256879 33.352600 -40.985400 0.000008 0.000006 3.605370 12.573500 -68.707500 -11.754300 -0.000006 -0.000006 -0.003992 -0.051360 -18.662300
0.000000 0.000000 0.000000 0.000000 0.000000 -0.000000 -0.423714 90.428100 -5.806510 89.210600 -3.612620 13.122800 15.735700 0.000005 -0.000001 89.773100 76.498200 -89.915900 8.984550 -0.406207 -0.000000 19.237300 -0.118923 -0.266095 16.377300 -0.000001 -0.000001 3.414040 -4.477500 2.364070 6.456720 -0.000001 -0.000000 -5.229330 -4.031120 0.365606 12.994200 -0.242716 4.980390 -91.257900 6.730860 -79.389100 5.348090 -0.000007 -0.000001 -54.426200 31.159500 -30.760000 24.328600 0.000019 0.000005 15.162800 23.299500 -34.415700 22.291600 -0.000001 0.000005 13.023500 5.236500 1.786730 12.994500 -0.242716 -4.980390 89.394100 10.762200 -86.758700 -5.348130 -0.000001 -0.000004 -54.721700 35.991000 -25.685600 -24.328900 0.000322 -0.000009 1.165360 2.990170 -21.321400 -22.291500 -0.000108 -0.000004 16.250200 5.416980 -3.497430 -2.192480 -6.469440 -0.000000 -174.464000 -10.574100 -2.435480 39.081100 -0.000007 -0.000012 -0.166045 0.244633 34.167100 40.985400 -0.000006 -0.000013 0.479666 5.350850 -68.479600 11.754300 -0.000000 0.000003 -0.000054 -0.000608 -16.601100 -2.192510 6.469440 -0.000001 174.860000 18.342900 178.631000 -39.081100 -0.002282 -0.040193 -0.165309 0.256011 33.368300 -40.985400 0.000008 0.000006 3.597450 12.529700 -68.682900 -11.754300 -0.000006 -0.000006 -0.004084 -0.052311 -18.701000
0.000000 0.000000 0.000000 0.000000 0.000000 -0.000000 -0.433576 90.425000 -5.881700 89.216100 -3.498500 13.142800 15.735700 0.000005 -0.000001 89.797200 76.478400 -89.936000 8.984550 -0.406207 -0.000000 19.276900 -0.107587 -0.259989 16.377300 -0.000001 -0.000001 3.440740 -4.526190 2.391220 6.456720 -0.000001 -0.000000 -5.255930 -4.073490 0.390493 12.994200 -0.242716 4.980390 -91.264300 6.697800 -79.285400 5.348090 -0.000007 -0.000001 -53.813500 29.904600 -31.445800 24.328600 0.000019 0.000005 16.622400 23.170500 -37.188200 22.291600 -0.000001 0.000005 13.390000 5.234530 1.837900 12.994500 -0.242716 -4.980390 89.388700 10.750200 -86.726000 -5.348130 -0.000001 -0.000004 -54.734600 35.968600 -25.687400 -24.328900 0.000322 -0.000009 1.197620 3.066660 -21.361400 -22.291500 -0.000108 -0.000004 16.308800 5.415860 -3.460160 -2.192480 -6.469440 -0.000000 -174.493000 -10.479400 -2.499310 39.081100 -0.000007 -0.000012 -0.166628 0.245302 34.187700 40.985400 -0.000006 -0.000013 0.476033 5.344080 -68.426100 11.754300 -0.000000 0.000003 -0.000053 -0.000599 -16.600800 -2.192510 6.469440 -0.000001 174.859000 18.403900 178.599000 -39.081100 -0.002282 -0.040193 -0.163909 0.253626 33.395100 -40.985400 0.000008 0.000006 3.599650 12.478100 -68.654800 -11.754300 -0.000006 -0.000006 -0.004265 -0.054170 -18.776700
0.000000 0.000000 0.000000 0.000000 0.000000 -0.000000 -0.449636 90.417100 -5.953590 89.207500 -3.393120 13.155400 15.735700 0.000005 -0.000001 89.849900 76.465600 -89.976100 8.984550 -0.406207 -0.000000 19.302500 -0.082056 -0.239091 16.377300 -0.000001 -0.000001 3.492550 -4.542370 2.380620 6.456720 -0.000001 -0.000000 -5.283130 -4.158990 0.411708 12.994200 -0.242716 4.980390 -91.270700 6.658180 -79.169500 5.348090 -0.000007 -0.000001 -53.200900 28.446700 -32.316400 24.328600 0.000019 0.000005 18.346900 23.254600 -40.027500 22.291600 -0.000001 0.000005 13.636400 5.233130 1.874540 12.994500 -0.242716 -4.980390 89.388300 10.747000 -86.722900 -5.348130 -0.000001 -0.000004 -54.734700 35.935800 -25.676500 -24.328900 0.000322 -0.000009 1.170900 3.005140 -21.316600 -22.291500 -0.000108 -0.000004 16.266300 5.418180 -3.537870 -2.192480 -6.469440 -0.000000 -174.486000 -10.438300 -2.575540 39.081100 -0.000007 -0.000012 -0.166250 0.244293 34.236900 40.985400 -0.000006 -0.000013 0.495628 5.436780 -68.393500 11.754300 -0.000000 0.000003 -0.000056 -0.000629 -16.601900 -2.192510 6.469440 -0.000001 174.893000 18.417300 178.545000 -39.081100 -0.002282 -0.040193 -0.161919 0.250189 33.439100 -40.985400 0.000008 0.000006 3.598840 12.396200 -68.633400 -11.754300 -0.000006 -0.000006 -0.004033 -0.051782 -18.679500
